<svg id="artwork" xmlns="http://www.w3.org/2000/svg" viewBox="0 0 92 35.02">
    <defs>
        <style>
            .cls-1{fill:#34a853}.cls-2{fill:#4285f4}.cls-3{fill:#ea4335}.cls-4{fill:#fbbc04}.cls-5{fill:none}.cls-6{fill:#5f6368}
        </style>
    </defs>
    <title>lockup_horizontal_logomark_simplified</title>
    <g id="_product_logo_here_" data-name="(product logo here)">
        <g id="logomark">
            <path id="green" class="cls-1"
                d="M14.59 7.66H3.65a2.19 2.19 0 0 0-2.19 2.19v11.4a1.08 1.08 0 0 1 .32-.78z" />
            <path id="blue" class="cls-2"
                d="M31.37 30.28H3.65a2.19 2.19 0 0 1-2.19-2.19v-6.84a1.08 1.08 0 0 1 .32-.78L17.19 5.06a1.1 1.1 0 0 1 .81-.32h13.37a2.19 2.19 0 0 1 2.19 2.19v21.16a2.19 2.19 0 0 1-2.19 2.19z" />
            <path id="red" class="cls-3"
                d="M17.19 5.06L1.78 20.47a1.08 1.08 0 0 0-.32.78v.09a.55.55 0 0 1 .54-.55h13.32a2.19 2.19 0 0 0 2.19-2.19V5.29a.55.55 0 0 1 .55-.55H18a1.1 1.1 0 0 0-.81.32z" />
            <path id="yellow" class="cls-4"
                d="M1.46 21.34a1 1 0 0 1 .69-.95l9.73-3.1A3.26 3.26 0 0 0 14 15.16l3.1-9.72a1 1 0 0 1 .95-.7H18a1.1 1.1 0 0 0-.77.32L1.78 20.47a1.1 1.1 0 0 0-.32.78z" />
            <path id="frame" class="cls-5" d="M0 0h35.02v35.02H0z" />
        </g>
    </g>
    <g id="_product_name_here_" data-name="(product name here)">
        <path class="cls-6"
            d="M50.41 18.67v7.06H48.3V9.26h9.61v2h-7.5v5.41h6.76v2zM62.45 10.57a1.5 1.5 0 1 1-3 0 1.46 1.46 0 0 1 .44-1.06 1.51 1.51 0 0 1 2.11 0 1.46 1.46 0 0 1 .45 1.06zM62 14.46v11.27h-2.1V14.46zM66.66 9.26v16.47h-2.12V9.26zM74.18 26.1a5.37 5.37 0 0 1-4.09-1.71 6 6 0 0 1-1.61-4.3A6.16 6.16 0 0 1 70 15.8a5.2 5.2 0 0 1 4-1.71 5.15 5.15 0 0 1 4 1.62 6.48 6.48 0 0 1 1.48 4.54v.23h-8.84a3.64 3.64 0 0 0 1.11 2.67 3.57 3.57 0 0 0 5.7-1l1.89.92a5.67 5.67 0 0 1-2.11 2.23 5.8 5.8 0 0 1-3.05.8zm-3.38-7.36h6.47a2.8 2.8 0 0 0-1-1.95A3.34 3.34 0 0 0 74 16a3.08 3.08 0 0 0-2.06.74 3.58 3.58 0 0 0-1.14 2zM90 22.6a3 3 0 0 1-1.29 2.48 5.06 5.06 0 0 1-3.24 1 5.12 5.12 0 0 1-3-.89 4.84 4.84 0 0 1-1.84-2.33l1.88-.81a3.53 3.53 0 0 0 1.21 1.58 3.2 3.2 0 0 0 3.43.12 1.24 1.24 0 0 0 .68-1c0-.72-.56-1.25-1.66-1.59l-1.93-.48c-2.2-.55-3.29-1.61-3.29-3.18a3 3 0 0 1 1.22-2.5 5.76 5.76 0 0 1 5.91-.22 3.89 3.89 0 0 1 1.69 1.91l-1.88.78a2.45 2.45 0 0 0-1-1.11 3.24 3.24 0 0 0-1.62-.4 2.66 2.66 0 0 0-1.48.41 1.19 1.19 0 0 0-.66 1c0 .65.61 1.11 1.82 1.38l1.7.44Q90 20 90 22.6z" />
    </g>
</svg>